<svg xmlns="http://www.w3.org/2000/svg" aria-hidden="true" style="position:absolute;width:0;height:0;overflow:hidden">
  <defs>
    <symbol id="icon-logo" viewBox="0 0 233 32">
      <path
        d="M19.471 17.348H6.279v12.649h-6.28V0h21.368v5.24H6.278v6.822H19.47v5.286zM32.201 25.66c3.569 0 5.376-2.259 5.376-6.776s-1.807-6.731-5.376-6.731c-3.569 0-5.376 2.214-5.376 6.731s1.807 6.776 5.376 6.776zm0 4.924c-7.183 0-11.43-4.789-11.43-11.701 0-7.048 4.382-11.701 11.43-11.701 6.957 0 11.294 4.608 11.294 11.701 0 7.048-4.382 11.701-11.294 11.701zM59.716 21.956h5.918c-.632 5.15-4.834 8.629-10.21 8.629-6.054 0-10.21-4.021-10.21-11.972s4.156-11.43 10.391-11.43c5.783 0 9.713 3.298 10.074 8.538h-5.918c-.316-2.304-1.988-3.659-4.201-3.659-2.485 0-4.518 1.581-4.518 6.415s2.033 7.183 4.337 7.183 4.111-1.31 4.337-3.704zM87.384 29.997h-5.557V26.88c-1.536 2.53-3.84 3.704-6.912 3.704-4.427 0-7.545-3.298-7.545-8.177V7.77h5.873v13.734c0 2.801 1.265 4.156 3.749 4.156 2.982 0 4.563-2.123 4.563-5.06V7.77h5.828v22.227zM108.978 14.502h-5.647c-.316-2.168-1.491-2.936-4.156-2.936-2.214 0-3.479.542-3.479 1.852s1.22 1.852 3.614 2.53c2.53.723 4.924 1.22 6.641 1.897 2.349.949 3.659 2.485 3.659 5.376 0 4.608-3.388 7.364-9.713 7.364-6.822 0-10.616-3.208-10.707-7.725h6.053c0 2.078 1.762 3.298 4.608 3.298 2.078 0 3.93-.632 3.93-2.304 0-1.581-1.672-2.078-3.569-2.53-3.75-.904-5.828-1.536-7.409-2.53-2.078-1.31-2.801-3.027-2.801-5.015 0-3.75 2.575-6.596 9.352-6.596 6.415 0 9.306 2.53 9.623 7.319zM117.412 29.997h-6.28v-6.099h6.28v6.099zM139.03 17.348h-13.192v12.649h-6.28V0h21.368v5.24h-15.089v6.822h13.192v5.286zM147.494 29.997h-5.873V7.77h5.512v2.665c1.943-2.982 4.201-3.253 6.596-3.253h.768v6.008a9.912 9.912 0 0 0-1.626-.136c-3.614 0-5.376 1.807-5.376 5.376v11.565zM168.495 21.549l.045-2.44c-.587.587-1.626.904-3.795 1.31-3.343.632-4.427 1.581-4.427 3.479 0 1.672.994 2.485 2.846 2.485 3.027 0 5.286-2.214 5.331-4.834zm5.918 8.448h-5.466c-.181-.542-.316-1.31-.361-1.988-1.4 1.536-3.75 2.575-6.731 2.575-5.06 0-7.409-2.485-7.409-6.099 0-6.415 4.292-7.138 10.21-7.951 2.936-.407 3.75-.994 3.75-2.53 0-1.446-1.446-2.304-3.75-2.304-2.665 0-3.75 1.31-4.021 3.298h-5.466c.09-4.608 2.62-7.816 9.758-7.816 7.048 0 9.487 3.162 9.487 8.764v14.05zM208.808 29.997h-5.737V16.534c0-2.665-1.4-4.563-3.479-4.563-2.168 0-3.75 2.033-3.75 4.744v13.282h-5.873V16.625c0-3.569-.949-4.472-3.524-4.472-2.349 0-3.569 1.446-3.569 4.337v13.508h-5.873V7.771h5.512v3.253c1.491-2.936 3.569-3.84 6.506-3.84 3.027 0 4.472.949 6.189 3.524 1.22-2.44 3.208-3.524 6.008-3.524 4.472 0 7.59 3.253 7.59 7.409v15.405zM216.619 16.715h9.08c-.09-3.298-2.259-4.879-4.563-4.879-2.349 0-4.292 1.807-4.518 4.879zm15.134 3.705h-15.315c.181 3.343 2.078 5.512 4.969 5.512 1.897 0 3.569-.949 3.976-2.485h6.054c-1.355 4.563-5.015 7.138-9.758 7.138-7.409 0-11.113-4.066-11.113-12.107 0-6.867 3.93-11.294 10.752-11.294s10.436 4.427 10.436 13.237z"/>
    </symbol>
    <symbol id="icon-camera" viewBox="0 0 32 32">
      <path
        d="M21 17a4.997 4.997 0 0 1-5 5 5.002 5.002 0 0 1-5-5 4.998 4.998 0 0 1 8.536-3.536A4.998 4.998 0 0 1 21 17z"/>
      <path
        d="M4 8a4.003 4.003 0 0 0-4 4v12a4.003 4.003 0 0 0 4 4h24a4.003 4.003 0 0 0 4-4V12a4.003 4.003 0 0 0-4-4h-2.344a4 4 0 0 1-2.828-1.172l-1.656-1.656A4 4 0 0 0 18.344 4h-4.688a4 4 0 0 0-2.828 1.172L9.172 6.828A4 4 0 0 1 6.344 8H4zm1 4a.997.997 0 0 1-1-1 .997.997 0 0 1 1-1 .997.997 0 0 1 1 1 .997.997 0 0 1-1 1zm18 5a6.999 6.999 0 1 1-14 0 7.003 7.003 0 0 1 7-7 7.003 7.003 0 0 1 7 7z"/>
    </symbol>
    <symbol id="icon-tablet-menu" viewBox="0 0 46 32">
      <path
        d="M44 6.743H8.686c-.914 0-1.714-.8-1.714-1.714s.8-1.714 1.714-1.714H44c.914 0 1.714.8 1.714 1.714s-.8 1.714-1.714 1.714zM44 26.171H8.686c-.914 0-1.714-.8-1.714-1.714s.8-1.714 1.714-1.714H44c.914 0 1.714.8 1.714 1.714s-.8 1.714-1.714 1.714zM44 16.457H19.657c-.914 0-1.714-.8-1.714-1.714s.8-1.714 1.714-1.714H44c.914 0 1.714.8 1.714 1.714s-.8 1.714-1.714 1.714z"/>
    </symbol>
    <symbol id="icon-mobile-menu" viewBox="0 0 47 32">
      <path
        d="M45.091 6.836H8.582c-.873 0-1.455-.582-1.455-1.455s.582-1.455 1.455-1.455h36.509c.873 0 1.455.582 1.455 1.455s-.582 1.455-1.455 1.455zM45.091 26.182H8.582c-.873 0-1.455-.582-1.455-1.455s.582-1.455 1.455-1.455h36.509c.873 0 1.455.582 1.455 1.455s-.582 1.455-1.455 1.455zM45.091 16.436H19.636c-.873 0-1.455-.582-1.455-1.455s.582-1.455 1.455-1.455h25.455c.873 0 1.455.582 1.455 1.455s-.582 1.455-1.455 1.455z"/>
    </symbol>
    <symbol id="icon-close" viewBox="0 0 32 32">
      <path
        d="M8 25.5c-.4 0-.8-.1-1.1-.4-.6-.6-.6-1.5 0-2.1l16-16c.6-.6 1.5-.6 2.1 0s.6 1.5 0 2.1l-16 16c-.2.3-.6.4-1 .4z"/>
      <path
        d="M24 25.5c-.4 0-.8-.1-1.1-.4l-16-16c-.6-.6-.6-1.5 0-2.1S8.4 6.4 9 7l16 16c.6.6.6 1.5 0 2.1-.2.3-.6.4-1 .4z"/>
    </symbol>
    <symbol id="icon-hero-arrow" viewBox="0 0 58 32">
      <path d="M40 2.144l17.6 13.856-17.6 13.856v-11.456h-40v-4.8h40v-11.456z"/>
    </symbol>
    <symbol id="icon-hero-star" viewBox="0 0 32 32">
      <path
        d="M24.32 29.28c-.16 0-.32 0-.48-.16l-7.84-4-7.68 4c-.48.16-.96.16-1.28-.16s-.48-.8-.48-1.12L8 19.2l-6.24-5.92c-.32-.32-.32-.8-.16-1.28s.48-.8.96-.8l8.64-1.28 3.84-7.84c.48-.8 1.76-.8 2.08 0l3.84 7.84 8.48 1.28c.48 0 .96.32.96.8.16.48 0 .96-.32 1.28L24 19.2l1.44 8.48c0 .48-.16.96-.48 1.12-.16.32-.48.48-.64.48zM16 22.56c.16 0 .32 0 .48.16l6.08 3.2-1.12-6.72c0-.32 0-.8.32-1.12l4.96-4.8-6.88-.96c-.32 0-.8-.32-.96-.64L16 5.44l-3.04 6.08c-.16.32-.48.64-.96.64l-6.72.96 4.96 4.8c.32.32.48.64.32 1.12l-1.12 6.72 6.08-3.2H16z"/>
    </symbol>
    <symbol id="icon-narrow-up-arrow" viewBox="0 0 32 32">
      <path
        d="M8 25.12c-.32 0-.48-.16-.8-.32-.48-.48-.48-1.12 0-1.44l16-16c.48-.48 1.12-.48 1.44 0s.48 1.12 0 1.44l-16 16c-.16.16-.32.32-.64.32z"/>
      <path
        d="M24 19.68c-.64 0-1.12-.48-1.12-1.12v-9.6h-9.6c-.48 0-.96-.32-.96-.96s.48-.96.96-.96H24c.64 0 1.12.48 1.12.96v10.72c0 .48-.48.96-1.12.96z"/>
    </symbol>
    <symbol id="icon-review-star" viewBox="0 0 32 32">
      <path
        d="m16 2.286 4.343 8.914 9.371 1.6-6.857 7.086 1.6 9.829-8.457-4.8-8.457 4.8 1.6-9.829L2.286 12.8l9.371-1.371L16 2.286z"/>
      <path
        d="M24.457 31.543c-.229 0-.686 0-.914-.229L16 26.971l-7.543 4.114c-.686.229-1.371.229-1.829 0-.457-.457-.914-1.143-.686-1.6l1.371-9.143-6.171-6.4c-.457-.457-.686-1.143-.457-1.829s.686-1.143 1.371-1.143l8.686-1.371 3.886-8.229c0-.457.686-.686 1.371-.686.686 0 1.371.457 1.6.914l3.886 8.229 8.686 1.371c.686 0 1.143.457 1.371 1.143s0 1.371-.457 1.829l-6.171 6.4 1.371 9.143c0 .686-.229 1.371-.686 1.6-.457 0-.686.229-1.143.229zM16 23.314c.229 0 .686 0 .914.229l5.486 2.971-1.143-6.4c0-.457 0-1.143.457-1.371l4.571-4.571-6.4-1.143c-.457 0-1.143-.457-1.371-.914L16 6.401l-2.743 5.714c-.229.457-.686.914-1.143.914l-6.171.914 4.571 4.571c.457.457.457.914.457 1.371l-1.143 6.4 5.486-2.971H16z"/>
    </symbol>
    <symbol id="icon-signup-1" viewBox="0 0 32 32">
      <path
        d="M15.992 2c3.396 0 6.998 2.86 6.998 4.995v4.997c0 1.924-0.8 5.604-2.945 7.293-0.547 0.43-0.831 1.115-0.749 1.807s0.518 1.291 1.151 1.582l8.703 4.127c0.068 0.031 0.834 0.16 0.834 1.23l0.001 1.952-27.984 0.002v-2.029c0-0.795 0.596-1.045 0.835-1.154l8.782-4.145c0.63-0.289 1.065-0.885 1.149-1.573s-0.193-1.37-0.733-1.803c-2.078-1.668-3.046-5.335-3.046-7.287v-4.997c0.001-2.089 3.638-4.995 7.004-4.995zM15.992 0c-4.416 0-9.004 3.686-9.004 6.996v4.997c0 2.184 0.997 6.601 3.793 8.847l-8.783 4.145s-1.998 0.89-1.998 1.999v3.001c0 1.105 0.895 1.999 1.998 1.999h27.986c1.105 0 1.999-0.895 1.999-1.999v-3.001c0-1.175-1.999-1.999-1.999-1.999l-8.703-4.127c2.77-2.18 3.708-6.464 3.708-8.865v-4.997c0-3.31-4.582-6.995-8.998-6.995v0z"/>
    </symbol>
    <symbol id="icon-signup-2" viewBox="0 0 32 32">
      <path
        d="M28.887 32.002h-25.897c-1.648 0-2.989-1.346-2.989-3.002v-15.008c0-0.013 0.007-0.023 0.007-0.035 0.001-0.036 0.013-0.070 0.021-0.105 0.011-0.080 0.025-0.156 0.055-0.232 0.004-0.014 0.005-0.029 0.011-0.042 0.020-0.043 0.051-0.079 0.079-0.118 0.027-0.041 0.039-0.087 0.071-0.125 0.017-0.019 0.039-0.026 0.056-0.043 0.008-0.008 0.013-0.019 0.021-0.027 0.009-0.009 0.013-0.020 0.022-0.028l4.637-4.037v-4.211c0-0.553 0.446-1.001 0.996-1.001h4.992l4.317-3.758c0.375-0.325 0.93-0.325 1.305 0l4.318 3.758h4.991c0.551 0 0.996 0.448 0.996 1.001v4.211l4.638 4.037c0.009 0.008 0.012 0.020 0.022 0.028 0.008 0.008 0.013 0.019 0.021 0.028 0.017 0.016 0.039 0.024 0.055 0.042 0.032 0.037 0.044 0.083 0.069 0.123 0.029 0.040 0.061 0.077 0.081 0.12 0.006 0.014 0.007 0.029 0.011 0.043 0.030 0.074 0.043 0.149 0.054 0.228 0.009 0.036 0.021 0.071 0.022 0.108 0 0.012 0.007 0.022 0.007 0.035v15.008c0 1.656-1.341 3.002-2.989 3.002zM28.381 30.001l-12.346-10.988c-0.033-0.028-0.161-0.028-0.206 0.010l-12.334 10.978h24.886zM1.912 28.736l7.145-6.359-7.145-6.257v12.616zM2.515 13.994l2.466 2.159v-4.306l-2.466 2.146zM15.939 2.309l-1.928 1.678h3.854l-1.927-1.678zM20.82 5.923c-0.094 0.029-0.19 0.061-0.288 0.061-0.116 0-0.233-0.020-0.344-0.061h-13.262v11.934l3.634 3.182 3.961-3.525c0.801-0.689 2.034-0.689 2.823-0.010l3.972 3.534 3.664-3.207v-11.908h-4.159zM26.895 11.848v4.306l2.465-2.159-2.465-2.146zM29.994 16.094l-7.174 6.283 7.174 6.385v-12.668z"/>
    </symbol>
    <symbol id="icon-signup-3" viewBox="0 0 32 32">
      <path
        d="M24.98 30.009h-23v-25h14.050l2.022-1.948-0.052-0.052h-16.020c-1.105 0-2 0.896-2 2v25c0 1.105 0.895 2 2 2h23c1.105 0 2-0.895 2-2v-14.646l-2 1.909v12.736zM30.445 1.295c-0.902-0.865-1.898-1.304-2.961-1.304-1.663 0-2.876 1.074-3.206 1.403-0.468 0.462-13.724 13.699-13.724 13.699-0.104 0.106-0.18 0.235-0.219 0.38-0.359 1.326-2.159 7.218-2.176 7.277-0.093 0.302-0.010 0.631 0.213 0.851 0.159 0.16 0.373 0.245 0.591 0.245 0.086 0 0.172-0.012 0.257-0.039 0.061-0.020 6.141-1.986 7.141-2.285 0.132-0.039 0.252-0.11 0.351-0.207 0.631-0.623 12.816-12.618 13.802-13.637 1.020-1.052 1.526-2.146 1.507-3.253-0.019-1.094-0.55-2.147-1.575-3.129zM29.076 6.285c-0.556 0.574-4.914 4.88-12.952 12.798l-0.615 0.607c-0.921 0.285-3.128 0.994-4.796 1.532 0.537-1.773 1.181-3.916 1.469-4.929 1.717-1.715 13.075-13.055 13.506-13.48 0.084-0.084 0.851-0.821 1.795-0.821 0.536 0 1.053 0.244 1.577 0.748 0.627 0.602 0.95 1.179 0.959 1.72 0.010 0.556-0.308 1.171-0.943 1.827z"/>
    </symbol>
    <symbol id="icon-prev-arrow" viewBox="0 0 58 32">
      <path d="M17.6 29.76l-17.6-13.76 17.6-13.76v11.52h40v4.8h-40v11.2z"/>
    </symbol>
    <symbol id="icon-next-arrow" viewBox="0 0 58 32">
      <path d="M40 2.144l17.6 13.856-17.6 13.856v-11.456h-40v-4.8h40v-11.456z"/>
    </symbol>
  </defs>
</svg>